<svg xmlns="http://www.w3.org/2000/svg" xmlns:xlink="http://www.w3.org/1999/xlink" width="460" height="86.084" viewBox="0 0 460 86.084">
  <defs>
    <clipPath id="clip-path">
      <rect id="Rectángulo_149100" data-name="Rectángulo 149100" width="460" height="86.084" transform="translate(16093 13117.004)" fill="#fff"/>
    </clipPath>
  </defs>
  <g id="Enmascarar_grupo_14724" data-name="Enmascarar grupo 14724" transform="translate(-16093 -13117.004)" clip-path="url(#clip-path)">
    <path id="Trazado_13447" data-name="Trazado 13447" d="M-42.3,52.094c-8.045,0-13.586-1.165-16.808-3.016a7.1,7.1,0,0,1-3.762-4.554c-.707-3.329.034-6.794,2.2-10.347A169.89,169.89,0,0,1-100.5,23.967c-24.3-9.245-63.662-30.374-63.843-30.493l1.736-4.169c.538.354,62.253,37.762,103.848,42.176q.589-.733,1.256-1.47C-45.847,17.145-17.339,5.921-8.03,6.955c5.062.562,6.207,3.29,6.44,4.866.807,5.474-6.975,13.9-16.654,18.033-12.424,4.879-25.982,5.856-39.187,4.661-2.355,3.334-3.233,6.488-2.614,9.406a4.4,4.4,0,0,0,2.376,2.654c8.1,4.655,34.8,4.467,83.386-11.38l.9,2.746C-5.18,48.31-27.8,52.094-42.3,52.094ZM-55.226,31.8c12.323.926,24.622-.2,35.887-4.622,8.891-3.8,15.431-11.282,14.891-14.938-.2-1.337-1.51-2.15-3.9-2.416C-15.974,8.979-43.521,19.038-55.226,31.8Z" transform="translate(16251.4 13132.373)" fill="#d21d39"/>
    <path id="Trazado_13448" data-name="Trazado 13448" d="M444.733,70.186C444.2,69.841,352.4,47.16,311.08,43.01q-.643.812-1.382,1.628c-11.155,12.313-37.743,23.122-48.169,23.123a11.845,11.845,0,0,1-1.3-.066c-5.061-.562-6.207-3.29-6.439-4.866-.807-5.474,6.975-13.9,16.654-18.033,12.365-4.855,25.873-5.941,39.267-4.776,2.294-3.292,3.146-6.407,2.533-9.291a5.99,5.99,0,0,0-3.2-3.78c-4.8-2.758-21.714-7.3-75,10.085l-.9-2.746c52.434-17.1,70.961-13.507,77.338-9.843a8.842,8.842,0,0,1,4.582,5.68c.7,3.289-.016,6.711-2.126,10.22C354.514,45.068,445.771,67.416,446.3,67.761ZM300.17,42.447a78.049,78.049,0,0,0-28.636,5.023c-8.891,3.8-15.43,11.282-14.891,14.938.2,1.337,1.509,2.15,3.9,2.416,7.653.85,35.372-9.285,47-22.115Q303.854,42.452,300.17,42.447Z" transform="translate(16113.446 13116.358)"/>
    <path id="Trazado_13449" data-name="Trazado 13449" d="M141.244,65.564l-.505-2.2a1.071,1.071,0,0,1,2.088-.48l.505,2.2a1.071,1.071,0,0,1-2.088.479" transform="translate(16127.171 13107.214)" fill="#d21d39"/>
    <path id="Trazado_13450" data-name="Trazado 13450" d="M144.138,64.6l-.505-2.2a1.071,1.071,0,0,1,2.088-.48l.505,2.2a1.071,1.071,0,1,1-2.088.479" transform="translate(16126.715 13107.366)" fill="#d21d39"/>
    <path id="Trazado_13451" data-name="Trazado 13451" d="M147.75,63.976l-.765-3.331a1.071,1.071,0,1,1,2.087-.479l.766,3.331a1.071,1.071,0,1,1-2.088.479" transform="translate(16126.186 13107.643)" fill="#d21d39"/>
    <path id="Trazado_13452" data-name="Trazado 13452" d="M149.936,65.354l-2.2-9.58a4.6,4.6,0,0,1,8.969-2.059l2.2,9.58a4.6,4.6,0,1,1-8.969,2.059" transform="translate(16126.082 13109.093)" fill="#d21d39"/>
    <path id="Trazado_13453" data-name="Trazado 13453" d="M156.749,65.893l-3.715-16.176a4.6,4.6,0,0,1,3.455-5.514l13.075-3a4.6,4.6,0,0,1,5.514,3.454l3.715,16.176a4.6,4.6,0,0,1-3.455,5.514l-13.075,3a4.6,4.6,0,0,1-5.514-3.455" transform="translate(16125.246 13110.522)" fill="#d21d39"/>
    <path id="Trazado_13454" data-name="Trazado 13454" d="M174.4,66.264l-5.713-24.878a4.033,4.033,0,0,1,7.862-1.806l5.713,24.878a4.033,4.033,0,1,1-7.862,1.806" transform="translate(16122.773 13111.253)" fill="#d21d39"/>
    <path id="Trazado_13455" data-name="Trazado 13455" d="M241.637,37.981l.505,2.2a1.071,1.071,0,0,1-2.088.48l-.505-2.2a1.071,1.071,0,0,1,2.088-.479" transform="translate(16111.582 13111.143)"/>
    <path id="Trazado_13456" data-name="Trazado 13456" d="M238.743,38.946l.505,2.2a1.071,1.071,0,0,1-2.088.48l-.505-2.2a1.071,1.071,0,1,1,2.088-.479" transform="translate(16112.038 13110.99)"/>
    <path id="Trazado_13457" data-name="Trazado 13457" d="M235.083,39.357l.765,3.331a1.071,1.071,0,1,1-2.087.479l-.766-3.331a1.071,1.071,0,0,1,2.088-.479" transform="translate(16112.616 13110.926)"/>
    <path id="Trazado_13458" data-name="Trazado 13458" d="M231.306,35.487l2.2,9.58a4.6,4.6,0,0,1-8.969,2.059l-2.2-9.58a4.6,4.6,0,1,1,8.969-2.059" transform="translate(16114.312 13111.969)"/>
    <path id="Trazado_13459" data-name="Trazado 13459" d="M221.759,33.149l3.715,16.176a4.6,4.6,0,0,1-3.455,5.514l-13.075,3a4.6,4.6,0,0,1-5.514-3.454l-3.715-16.176A4.6,4.6,0,0,1,203.17,32.7l13.075-3a4.6,4.6,0,0,1,5.514,3.455" transform="translate(16117.881 13112.338)"/>
    <path id="Trazado_13460" data-name="Trazado 13460" d="M206.392,31.923,212.1,56.8a4.033,4.033,0,1,1-7.862,1.8L198.53,33.729a4.033,4.033,0,1,1,7.862-1.806" transform="translate(16118.065 13112.462)"/>
    <path id="Trazado_13461" data-name="Trazado 13461" d="M198.118,44.7l-7.632,1.753a1.942,1.942,0,0,1-.87-3.786l7.633-1.753Z" transform="translate(16119.693 13110.549)"/>
    <path id="Trazado_13462" data-name="Trazado 13462" d="M201.211,57.668l-7.632,1.753a1.942,1.942,0,1,1-.87-3.786l7.633-1.753Z" transform="translate(16119.205 13108.503)"/>
    <path id="Trazado_13463" data-name="Trazado 13463" d="M156.3,27.143l-2.773-1.824a1.11,1.11,0,1,1,1.22-1.855l2.773,1.824a1.11,1.11,0,0,1-1.22,1.855" transform="translate(16125.229 13113.331)" fill="#d21d39"/>
    <path id="Trazado_13464" data-name="Trazado 13464" d="M169.611,14.491l-1.66-2.875a1.11,1.11,0,0,1,1.922-1.11l1.66,2.875a1.11,1.11,0,1,1-1.922,1.11" transform="translate(16122.897 13115.434)" fill="#d21d39"/>
    <path id="Trazado_13465" data-name="Trazado 13465" d="M189.024,8.376V5.057a1.11,1.11,0,1,1,2.219,0V8.376a1.11,1.11,0,1,1-2.219,0" transform="translate(16119.549 13116.381)" fill="#d21d39"/>
    <path id="Trazado_13466" data-name="Trazado 13466" d="M207.81,13.286l1.824-2.773a1.11,1.11,0,0,1,1.855,1.22l-1.824,2.773a1.11,1.11,0,1,1-1.855-1.22" transform="translate(16116.614 13115.424)" fill="#d21d39"/>
    <path id="Trazado_13467" data-name="Trazado 13467" d="M162.669,20.53l-5.894-5.476a1.11,1.11,0,0,1,1.51-1.626l5.9,5.476a1.11,1.11,0,0,1-1.512,1.626" transform="translate(16124.693 13114.933)" fill="#d21d39"/>
    <path id="Trazado_13468" data-name="Trazado 13468" d="M179.069,9.2l-1.8-7.842a1.11,1.11,0,0,1,2.163-.5l1.8,7.842a1.11,1.11,0,1,1-2.163.5" transform="translate(16121.408 13117.004)" fill="#d21d39"/>
    <path id="Trazado_13469" data-name="Trazado 13469" d="M198.257,8.577,200.572.872a1.11,1.11,0,1,1,2.126.638l-2.314,7.706a1.11,1.11,0,1,1-2.126-.638" transform="translate(16118.1 13116.991)" fill="#d21d39"/>
    <path id="Trazado_13470" data-name="Trazado 13470" d="M173.148,87.6l-1.584,2.917a1.11,1.11,0,0,0,1.951,1.059l1.584-2.917a1.11,1.11,0,1,0-1.951-1.06" transform="translate(16122.325 13103.275)"/>
    <path id="Trazado_13471" data-name="Trazado 13471" d="M190.856,92.39l-.106,3.318a1.11,1.11,0,1,0,2.218.072l.106-3.318a1.11,1.11,0,1,0-2.218-.071" transform="translate(16119.276 13102.597)"/>
    <path id="Trazado_13472" data-name="Trazado 13472" d="M210.563,88.692l1.567,2.927a1.11,1.11,0,0,0,1.957-1.048l-1.567-2.927a1.11,1.11,0,1,0-1.956,1.048" transform="translate(16116.172 13103.269)"/>
    <path id="Trazado_13473" data-name="Trazado 13473" d="M224.856,75.587l2.917,1.584a1.11,1.11,0,0,0,1.059-1.951l-2.917-1.584a1.11,1.11,0,1,0-1.06,1.951" transform="translate(16113.987 13105.407)"/>
    <path id="Trazado_13474" data-name="Trazado 13474" d="M181.886,89.538l-2.613,7.61a1.11,1.11,0,1,0,2.1.72l2.612-7.61a1.11,1.11,0,1,0-2.1-.721" transform="translate(16121.097 13102.996)"/>
    <path id="Trazado_13475" data-name="Trazado 13475" d="M201.3,91.757l2.113,7.764a1.11,1.11,0,0,0,2.142-.583l-2.113-7.764a1.11,1.11,0,0,0-2.142.583" transform="translate(16117.619 13102.748)"/>
    <path id="Trazado_13476" data-name="Trazado 13476" d="M218.22,83.432l5.677,5.7a1.11,1.11,0,1,0,1.573-1.567l-5.678-5.7a1.11,1.11,0,0,0-1.572,1.567" transform="translate(16114.993 13104.14)"/>
  </g>
</svg>
